
<svg id="svg4821" xmlns:rdf="http://www.w3.org/1999/02/22-rdf-syntax-ns#" xmlns="http://www.w3.org/2000/svg" height="426.78mm" width="408.5mm" version="1.1" xmlns:cc="http://creativecommons.org/ns#" xmlns:dc="http://purl.org/dc/elements/1.1/" viewBox="0 0 1447.432 1512.2053" width="48" height="48">
<g id="layer1" fill-rule="evenodd" transform="translate(-1140 -1132.3)">
<path id="path5414" d="m723.72 0a94.389 94.389 0 0 0 -94.39 94.389 94.389 94.389 0 0 0 94.39 94.391 94.389 94.389 0 0 0 94.39 -94.391 94.389 94.389 0 0 0 -94.39 -94.389zm0 188.78c-41.03 0-105 11.11-111.75 51.57-17.19 103.15-17.19 223.49 17.19 223.49 34.39 0 0-163.32 25.79-163.32 12.5 0 4.94 52.37 12.89 120.35 13.22 112.96 35.57 262.76 37.86 278.07a60 60 0 0 1 1.04 -0.34c1.09-29.82 8.99-239.06 16.98-239.06s15.88 209.21 16.97 239.05a60 60 0 0 1 1.05 0.3c2.32-15.44 24.66-165.14 37.85-278.02 7.96-68.15 0.37-120.35 12.89-120.35 34.39 0-8.59 163.32 25.79 163.32s34.38-120.34 17.19-223.49c-6.74-40.46-70.72-51.57-111.74-51.57z" transform="translate(1140 1132.3)" fill="#004d88"/>
<path id="use5456" d="m338.78 126.46a94.389 94.389 0 0 0 -59.49 17.94 94.389 94.389 0 0 0 -20.88 131.85 94.389 94.389 0 0 0 131.84 20.88 94.389 94.389 0 0 0 20.88 -131.84 94.389 94.389 0 0 0 -72.35 -38.83zm51.47 170.67c-33.19 24.11-78.42 70.7-60.09 107.4 46.72 93.56 117.46 190.92 145.28 170.71 27.81-20.21-96-132.13-75.14-147.29 10.11-7.35 34.77 39.46 81.17 89.78 77.1 83.62 183.22 191.69 194.07 202.72a60 60 0 0 1 0.66 -0.86c-16.56-24.64-133.26-198.71-126.8-203.41 6.47-4.69 135.91 160.03 154.26 183.44a60 60 0 0 1 1.04 -0.34c-7.13-13.72-77.12-148.1-132.83-247.23-33.61-59.81-70.44-97.58-60.3-104.94 27.81-20.21 89.04 137.18 116.86 116.97 27.81-20.21-42.92-117.56-117.46-190.91-29.24-28.77-87.53-0.16-120.72 23.96z" transform="translate(1140 1132.3)" fill="#6a661f"/>
<path id="use5458" d="m95.725 457.24a94.389 94.389 0 0 0 -91.106 65.21 94.389 94.389 0 0 0 60.602 118.94 94.389 94.389 0 0 0 118.94 -60.6 94.389 94.389 0 0 0 -60.6 -118.94 94.389 94.389 0 0 0 -27.835 -4.61zm88.435 123.55c-12.68 39.02-21.89 103.29 14.52 122.21 92.78 48.23 207.24 85.42 217.86 52.72 10.63-32.7-155.33-50.47-147.36-75 3.87-11.89 51.33 11.49 118.44 24.93 111.48 22.32 260.75 47.35 276.12 49.92a60 60 0 0 1 0.06 -1.09c-27.95-10.22-224.6-82.42-222.13-90.02 2.47-7.59 203.7 49.49 232.56 57.72a60 60 0 0 1 0.67 -0.89c-13.89-6.93-149.43-74.48-252.75-121.92-62.35-28.63-114.34-37.54-110.47-49.45 10.63-32.7 152.68 58.64 163.3 25.94 10.63-32.7-103.83-69.88-207.24-85.41-40.57-6.09-70.9 51.32-83.58 90.34z" transform="translate(1140 1132.3)" fill="#db3253"/>
<path id="use5460" d="m388.45 744.12c-41.81 0.2-121.63 29.67-189.77 65.08-36.41 18.92-27.2 83.2-14.52 122.22 12.68 39.01 43.01 96.38 83.58 90.38 103.41-15.6 217.87-52.76 207.24-85.46-10.62-32.7-155.33 50.47-163.3 25.95-3.86-11.89 48.28-20.88 110.47-49.45 103.36-47.49 238.95-115.04 252.78-121.94a60 60 0 0 1 -0.64 -0.89c-28.59 8.15-230.15 65.34-232.62 57.73-2.47-7.59 194.07-79.76 222.11-90.01a60 60 0 0 1 -0.04 -1.09c-15.4 2.57-164.68 27.58-276.12 49.92-67.27 13.49-114.57 36.83-118.44 24.92-10.62-32.7 157.99-42.29 147.36-74.99-2.82-8.69-12.97-12.44-28.09-12.37zm-204.29 187.3a94.389 94.389 0 0 0 -118.94 -60.61 94.389 94.389 0 0 0 -60.601 118.94 94.389 94.389 0 0 0 118.94 60.65 94.389 94.389 0 0 0 60.6 -118.98z" transform="translate(1140 1132.3)" fill="#fdbe32"/>
<path id="use5462" d="m675.54 791.75c-10.85 11.04-117.01 119.11-194.07 202.72-46.5 50.43-71.04 97.13-81.17 89.83-27.82-20.3 102.95-127.12 75.14-147.33-27.82-20.21-98.56 77.13-145.28 170.73-18.33 36.7 26.9 83.3 60.09 107.4s91.48 52.7 120.72 23.9c74.54-73.3 145.27-170.7 117.46-190.9-27.82-20.2-96 132.2-116.86 117-10.12-7.4 26.78-45.3 60.3-104.9 55.7-99.19 125.65-233.48 132.82-247.25a60 60 0 0 1 -1.02 -0.37c-18.32 23.37-147.8 188.12-154.27 183.44-6.46-4.7 110.13-178.6 126.78-203.37a60 60 0 0 1 -0.64 -0.9zm-285.29 423.35a94.389 94.389 0 0 0 -131.84 20.9 94.389 94.389 0 0 0 20.88 131.8 94.389 94.389 0 0 0 131.84 -20.9 94.389 94.389 0 0 0 -20.88 -131.8z" transform="translate(1140 1132.3)" fill="#03a09f"/>
<path id="use5464" d="m741.73 813.26a60 60 0 0 1 -1.04 0.35c-1.09 29.82-8.98 239.09-16.97 239.09s-15.89-209.23-16.98-239.08a60 60 0 0 1 -1.05 -0.3c-2.32 15.44-24.66 165.14-37.85 277.98-7.96 68.2-0.37 120.4-12.89 120.4-34.38 0 8.6-163.3-25.79-163.3-34.38 0-34.38 120.3-17.19 223.5 6.75 40.4 70.72 51.5 111.75 51.5 41.02 0 105-11.1 111.74-51.5 17.19-103.2 17.19-223.5-17.19-223.5s0 163.3-25.79 163.3c-12.5 0-4.93-52.4-12.89-120.4-13.22-112.93-35.56-262.73-37.86-278.04zm-18.01 510.14a94.389 94.389 0 0 0 -94.39 94.4 94.389 94.389 0 0 0 94.39 94.4 94.389 94.389 0 0 0 94.39 -94.4 94.389 94.389 0 0 0 -94.39 -94.4z" transform="translate(1140 1132.3)" fill="#da3555"/>
<path id="use5466" d="m771.89 791.75a60 60 0 0 1 -0.66 0.87c16.57 24.64 133.26 198.7 126.8 203.4-6.47 4.68-135.91-160.03-154.26-183.43a60 60 0 0 1 -1.04 0.34c7.14 13.72 77.12 148.09 132.83 247.27 33.62 59.8 70.44 97.5 60.31 104.9-27.82 20.2-89.05-137.2-116.86-117-27.82 20.2 42.91 117.6 117.45 190.9 29.24 28.8 87.54 0.2 120.74-23.9s78.4-70.7 60.1-107.4c-46.8-93.6-117.49-190.94-145.3-170.73-27.82 20.21 96 132.13 75.1 147.33-10.1 7.3-34.7-39.5-81.13-89.83-77.1-83.62-183.23-191.68-194.08-202.72zm285.31 423.35a94.389 94.389 0 0 0 -20.9 131.8 94.389 94.389 0 0 0 131.8 20.9 94.389 94.389 0 0 0 20.9 -131.8 94.389 94.389 0 0 0 -131.8 -20.9z" transform="translate(1140 1132.3)" fill="#3ca1c7"/>
<path id="use5468" d="m1059 744.12c-15.1-0.07-25.3 3.68-28.1 12.37-10.6 32.7 155.3 50.47 147.3 74.99-3.8 11.89-51.3-11.48-118.4-24.92-111.47-22.33-260.73-47.35-276.11-49.92a60 60 0 0 1 -0.06 1.08c27.95 10.22 224.57 82.42 222.17 90.02-2.5 7.6-203.74-49.48-232.6-57.71a60 60 0 0 1 -0.67 0.88c13.89 6.94 149.44 74.49 252.77 121.93 62.3 28.63 114.3 37.53 110.4 49.45-10.6 32.7-152.62-58.65-163.25-25.95-10.62 32.7 103.85 69.86 207.25 85.46 40.6 6 70.9-51.37 83.6-90.38 12.7-39.02 21.9-103.3-14.5-122.22-68.2-35.41-148-64.88-189.8-65.08zm204.3 187.3a94.389 94.389 0 0 0 60.6 118.98 94.389 94.389 0 0 0 118.9 -60.65 94.389 94.389 0 0 0 -60.6 -118.94 94.389 94.389 0 0 0 -118.9 60.61z" transform="translate(1140 1132.3)" fill="#e33c21"/>
<path id="use5470" d="m1349 457.32a94.389 94.389 0 0 0 -25.1 4.53 94.389 94.389 0 0 0 -60.6 118.94 94.389 94.389 0 0 0 118.9 60.6 94.389 94.389 0 0 0 60.6 -118.94 94.389 94.389 0 0 0 -93.8 -65.13zm-85.7 123.47c-12.7-39.02-43-96.43-83.6-90.34-103.4 15.52-217.87 52.71-207.25 85.41 10.63 32.7 155.35-50.47 163.25-25.94 3.9 11.89-48.2 20.88-110.4 49.45-103.38 47.49-238.97 115.04-252.8 121.94a60 60 0 0 1 0.64 0.89c28.59-8.16 230.16-65.34 232.66-57.74 2.4 7.6-194.1 79.76-222.14 90.01a60 60 0 0 1 0.04 1.1c15.4-2.57 164.68-27.58 276.1-49.92 67.3-13.49 114.6-36.84 118.4-24.93 10.7 32.7-157.9 42.3-147.3 75s125.1-4.49 217.9-52.72c36.4-18.92 27.2-83.19 14.5-122.21z" transform="translate(1140 1132.3)" fill="#69243c"/>
<path id="use5472" d="m1115.3 126.41a94.389 94.389 0 0 0 -79 38.88 94.389 94.389 0 0 0 20.9 131.84 94.389 94.389 0 0 0 131.8 -20.88 94.389 94.389 0 0 0 -20.9 -131.85 94.389 94.389 0 0 0 -52.8 -17.99zm-58.1 170.72c-33.2-24.12-91.5-52.74-120.74-23.96-74.54 73.34-145.27 170.7-117.45 190.91 27.81 20.21 95.99-132.13 116.86-116.97 10.11 7.35-26.79 45.27-60.31 104.94-55.69 99.15-125.66 233.44-132.82 247.21a60 60 0 0 1 1.02 0.37c18.32-23.37 147.8-188.15 154.27-183.45 6.46 4.7-110.13 178.61-126.78 203.37a60 60 0 0 1 0.64 0.9c10.86-11.04 117.02-119.11 194.08-202.72 46.53-50.45 71.03-97.14 81.13-89.78 27.8 20.21-102.92 127.08-75.1 147.29 27.81 20.21 98.5-77.15 145.3-170.71 18.3-36.7-26.9-83.29-60.1-107.4z" transform="translate(1140 1132.3)" fill="#ea5109"/>
<path id="path5514" d="m846.64 377.79c-28.24 40.55-42.67 74.68-27.95 86.03 18.57-0.54 26.96-36.63 27.95-86.03z" transform="translate(1140 1132.3)" fill="#004d88"/>
</g>
</svg>
